<svg
  width="258"
  height="82"
  vie-wBox="0 0 258 82"
  fill="none"
  xmlns="http://www.w3.org/2000/svg"
>
  <path
    d="M20.404 63.896C17.0333 63.896 14.0467 63.2987 11.444 62.104C8.84133 60.9093 6.79333 59.16 5.3 56.856C3.84933 54.5093 3.124 51.672 3.124 48.344V46.744H9.972V48.344C9.972 51.5013 10.9107 53.8693 12.788 55.448C14.708 57.0267 17.2467 57.816 20.404 57.816C23.604 57.816 26.0147 57.1547 27.636 55.832C29.2573 54.4667 30.068 52.7173 30.068 50.584C30.068 49.176 29.684 48.024 28.916 47.128C28.148 46.232 27.06 45.528 25.652 45.016C24.244 44.4613 22.5587 43.9493 20.596 43.48L18.228 42.904C15.3693 42.2213 12.8733 41.3893 10.74 40.408C8.64933 39.384 7.028 38.04 5.876 36.376C4.724 34.712 4.148 32.5787 4.148 29.976C4.148 27.3307 4.788 25.0693 6.068 23.192C7.39067 21.3147 9.204 19.864 11.508 18.84C13.812 17.816 16.5213 17.304 19.636 17.304C22.7507 17.304 25.524 17.8373 27.956 18.904C30.4307 19.9707 32.372 21.5493 33.78 23.64C35.188 25.7307 35.892 28.3547 35.892 31.512V33.816H29.044V31.512C29.044 29.592 28.6387 28.0347 27.828 26.84C27.06 25.6453 25.972 24.7707 24.564 24.216C23.156 23.6613 21.5133 23.384 19.636 23.384C16.9053 23.384 14.772 23.96 13.236 25.112C11.7427 26.2213 10.996 27.7787 10.996 29.784C10.996 31.1493 11.316 32.28 11.956 33.176C12.6387 34.0293 13.62 34.7333 14.9 35.288C16.18 35.8427 17.78 36.3333 19.7 36.76L22.068 37.336C24.9693 37.976 27.5293 38.808 29.748 39.832C31.9667 40.8133 33.716 42.1573 34.996 43.864C36.276 45.5707 36.916 47.768 36.916 50.456C36.916 53.144 36.2333 55.4907 34.868 57.496C33.5453 59.5013 31.6467 61.08 29.172 62.232C26.6973 63.3413 23.7747 63.896 20.404 63.896ZM59.02 63.896C55.9907 63.896 53.2387 63.256 50.764 61.976C48.332 60.696 46.3907 58.84 44.94 56.408C43.532 53.976 42.828 51.0533 42.828 47.64V46.808C42.828 43.3947 43.532 40.4933 44.94 38.104C46.3907 35.672 48.332 33.816 50.764 32.536C53.2387 31.2133 55.9907 30.552 59.02 30.552C62.0493 30.552 64.6307 31.1067 66.764 32.216C68.8973 33.3253 70.604 34.7973 71.884 36.632C73.2067 38.4667 74.06 40.4933 74.444 42.712L68.044 44.056C67.8307 42.648 67.3827 41.368 66.7 40.216C66.0173 39.064 65.0573 38.1467 63.82 37.464C62.5827 36.7813 61.0253 36.44 59.148 36.44C57.3133 36.44 55.6493 36.8667 54.156 37.72C52.7053 38.5307 51.5533 39.7253 50.7 41.304C49.8467 42.84 49.42 44.7173 49.42 46.936V47.512C49.42 49.7307 49.8467 51.6293 50.7 53.208C51.5533 54.7867 52.7053 55.9813 54.156 56.792C55.6493 57.6027 57.3133 58.008 59.148 58.008C61.9213 58.008 64.0333 57.304 65.484 55.896C66.9347 54.4453 67.852 52.6107 68.236 50.392L74.636 51.864C74.124 54.04 73.2067 56.0453 71.884 57.88C70.604 59.7147 68.8973 61.1867 66.764 62.296C64.6307 63.3627 62.0493 63.896 59.02 63.896ZM113.592 63.896C110.221 63.896 107.234 63.2987 104.632 62.104C102.029 60.9093 99.9808 59.16 98.4875 56.856C97.0368 54.5093 96.3115 51.672 96.3115 48.344V46.744H103.16V48.344C103.16 51.5013 104.098 53.8693 105.976 55.448C107.896 57.0267 110.434 57.816 113.592 57.816C116.792 57.816 119.202 57.1547 120.824 55.832C122.445 54.4667 123.256 52.7173 123.256 50.584C123.256 49.176 122.872 48.024 122.104 47.128C121.336 46.232 120.248 45.528 118.84 45.016C117.432 44.4613 115.746 43.9493 113.784 43.48L111.416 42.904C108.557 42.2213 106.061 41.3893 103.928 40.408C101.837 39.384 100.216 38.04 99.0635 36.376C97.9115 34.712 97.3355 32.5787 97.3355 29.976C97.3355 27.3307 97.9755 25.0693 99.2555 23.192C100.578 21.3147 102.392 19.864 104.696 18.84C107 17.816 109.709 17.304 112.824 17.304C115.938 17.304 118.712 17.8373 121.144 18.904C123.618 19.9707 125.56 21.5493 126.968 23.64C128.376 25.7307 129.08 28.3547 129.08 31.512V33.816H122.232V31.512C122.232 29.592 121.826 28.0347 121.016 26.84C120.248 25.6453 119.16 24.7707 117.752 24.216C116.344 23.6613 114.701 23.384 112.824 23.384C110.093 23.384 107.96 23.96 106.424 25.112C104.93 26.2213 104.184 27.7787 104.184 29.784C104.184 31.1493 104.504 32.28 105.144 33.176C105.826 34.0293 106.808 34.7333 108.088 35.288C109.368 35.8427 110.968 36.3333 112.888 36.76L115.256 37.336C118.157 37.976 120.717 38.808 122.936 39.832C125.154 40.8133 126.904 42.1573 128.184 43.864C129.464 45.5707 130.104 47.768 130.104 50.456C130.104 53.144 129.421 55.4907 128.056 57.496C126.733 59.5013 124.834 61.08 122.36 62.232C119.885 63.3413 116.962 63.896 113.592 63.896ZM137.552 63V31.448H144.144V63H137.552ZM140.88 27.16C139.6 27.16 138.512 26.7547 137.616 25.944C136.762 25.0907 136.336 24.0027 136.336 22.68C136.336 21.3573 136.762 20.2907 137.616 19.48C138.512 18.6267 139.6 18.2 140.88 18.2C142.202 18.2 143.29 18.6267 144.144 19.48C144.997 20.2907 145.424 21.3573 145.424 22.68C145.424 24.0027 144.997 25.0907 144.144 25.944C143.29 26.7547 142.202 27.16 140.88 27.16ZM152.391 47.384V46.424C152.391 43.096 153.052 40.2587 154.375 37.912C155.74 35.5653 157.532 33.752 159.751 32.472C161.969 31.192 164.401 30.552 167.047 30.552C170.119 30.552 172.465 31.128 174.087 32.28C175.751 33.432 176.967 34.6693 177.735 35.992H178.759V31.448H185.159V69.464C185.159 71.384 184.583 72.92 183.431 74.072C182.321 75.224 180.785 75.8 178.823 75.8H157.575V70.04H176.775C178.012 70.04 178.631 69.4 178.631 68.12V58.072H177.607C177.137 58.84 176.476 59.6293 175.623 60.44C174.769 61.2507 173.639 61.912 172.231 62.424C170.865 62.936 169.137 63.192 167.047 63.192C164.401 63.192 161.948 62.5733 159.687 61.336C157.468 60.056 155.697 58.2427 154.375 55.896C153.052 53.5067 152.391 50.6693 152.391 47.384ZM168.839 57.432C171.697 57.432 174.044 56.536 175.879 54.744C177.756 52.9093 178.695 50.392 178.695 47.192V46.616C178.695 43.3307 177.777 40.8133 175.943 39.064C174.108 37.272 171.74 36.376 168.839 36.376C166.023 36.376 163.676 37.272 161.799 39.064C159.964 40.8133 159.047 43.3307 159.047 46.616V47.192C159.047 50.392 159.964 52.9093 161.799 54.744C163.676 56.536 166.023 57.432 168.839 57.432ZM194.864 63V18.2H201.456V35.928H202.48C202.907 35.1173 203.504 34.328 204.272 33.56C205.083 32.792 206.128 32.1733 207.408 31.704C208.731 31.192 210.395 30.936 212.4 30.936C214.789 30.936 216.901 31.4693 218.736 32.536C220.613 33.6027 222.085 35.1173 223.152 37.08C224.219 39 224.752 41.3253 224.752 44.056V63H218.16V44.568C218.16 41.8373 217.477 39.832 216.112 38.552C214.747 37.2293 212.869 36.568 210.48 36.568C207.749 36.568 205.552 37.464 203.888 39.256C202.267 41.048 201.456 43.6507 201.456 47.064V63H194.864ZM245.204 63C243.284 63 241.748 62.424 240.596 61.272C239.487 60.12 238.932 58.584 238.932 56.664V37.016H230.228V31.448H238.932V21.016H245.524V31.448H254.932V37.016H245.524V55.512C245.524 56.792 246.121 57.432 247.316 57.432H253.908V63H245.204Z"
    fill="#75D114"
  />
  <path
    d="M167.59 41.4766C167.59 42.0288 168.038 42.4766 168.59 42.4766C169.142 42.4766 169.59 42.0288 169.59 41.4766H167.59ZM169.59 41.4766V33.7047H167.59V41.4766H169.59Z"
    fill="#75D113"
  />
  <path
    d="M169.59 51.7676C169.59 51.2153 169.142 50.7676 168.59 50.7676C168.038 50.7676 167.59 51.2153 167.59 51.7676H169.59ZM167.59 51.7676V59.5394H169.59V51.7676H167.59Z"
    fill="#75D113"
  />
  <path
    d="M173.123 46.2344C172.571 46.2344 172.123 46.6821 172.123 47.2344C172.123 47.7867 172.571 48.2344 173.123 48.2344V46.2344ZM173.123 48.2344H180.895V46.2344H173.123V48.2344Z"
    fill="#75D113"
  />
  <path
    d="M164.516 48.2344C165.068 48.2344 165.516 47.7867 165.516 47.2344C165.516 46.6821 165.068 46.2344 164.516 46.2344V48.2344ZM164.516 46.2344H156.744V48.2344H164.516V46.2344Z"
    fill="#75D113"
  />
  <path
    d="M89.3001 29.666V58.8327C89.3001 61.166 87.4668 62.9993 85.1335 62.9993C82.8001 62.9993 80.9668 61.166 80.9668 58.8327V29.666"
    stroke="#75D114"
    stroke-width="2"
    stroke-linecap="round"
    stroke-linejoin="round"
  />
  <path
    d="M79.2988 29.666H90.9655"
    stroke="#75D114"
    stroke-width="2"
    stroke-linecap="round"
    stroke-linejoin="round"
  />
  <path
    d="M89.2988 48.8223L85.709 44.3125"
    stroke="#75D114"
    stroke-width="2"
    stroke-linecap="round"
    stroke-linejoin="round"
  />
  <path
    d="M81.2719 45.347L85.709 44.3125"
    stroke="#75D114"
    stroke-width="2"
    stroke-linecap="round"
    stroke-linejoin="round"
  />
  <circle cx="80.7988" cy="24.0684" r="1.5" fill="#75D114" />
  <circle cx="85.5039" cy="13.1953" r="1.5" fill="#75D114" />
  <circle cx="88.0039" cy="19.4844" r="2" fill="#75D114" />
  <circle cx="79.2988" cy="12.1953" r="1" fill="#75D114" />
  <circle cx="82.2695" cy="19.0664" r="1" fill="#75D114" />
  <circle cx="87.0039" cy="25.0684" r="0.5" fill="#75D114" />
</svg>
